<?xml version="1.0" encoding="UTF-8"?>
<svg version="1.1" viewBox="0 0 500 500" xmlns="http://www.w3.org/2000/svg">
<g transform="translate(0 -552.36)">
<path transform="translate(0 552.36)" d="m50 0c-27.7 0-50 22.3-50 50v400c0 27.7 22.3 50 50 50h400c27.7 0 50-22.3 50-50v-400c0-27.7-22.3-50-50-50h-400zm29.062 51.156h343.41c15.662 0 28.281 12.62 28.281 28.281v343.53c0 15.662-12.62 28.25-28.281 28.25h-343.41c-15.662 0-28.25-12.588-28.25-28.25v-343.53c0-15.662 12.588-28.281 28.25-28.281zm60.844 54.625c-19.182 0-34.719 15.537-34.719 34.719s15.537 34.75 34.719 34.75 34.719-15.568 34.719-34.75-15.537-34.719-34.719-34.719zm181.88 90.438c-3.9221-0.01397-7.7402 0.14901-12.719 0.40625-10.919 0.56416-36.413 12.367-45.75 31.219 0-8.1843 0.09375-15.689 0.09375-26.906-11.184 0-25.808 0.0625-56.375 0.0625 0 34.253-0.375 155.56-0.375 190.91h59.188c0-20.967 0.28125-73.645 0.28125-106.72 0-11.106 6.7152-36.75 34.312-36.75 25.059 0 32.094 21.078 32.094 36.75 0 34.445-0.25 83.144-0.25 106.72h59.531c0-23.044 0.20675-85.632-0.5-125.12-0.85812-47.951-30.035-68.417-56.219-70.031-5.3882-0.33227-9.3904-0.51728-13.312-0.53125zm-211.59 5.5312v190.06h59.344v-190.06h-59.344z"/>
</g>
</svg>